<?xml version="1.0" encoding="utf-8"?>
<!-- Generator: Adobe Illustrator 16.0.0, SVG Export Plug-In . SVG Version: 6.00 Build 0)  -->
<!DOCTYPE svg PUBLIC "-//W3C//DTD SVG 1.1//EN" "http://www.w3.org/Graphics/SVG/1.1/DTD/svg11.dtd">
<svg version="1.1" id="Layer_1" xmlns="http://www.w3.org/2000/svg" xmlns:xlink="http://www.w3.org/1999/xlink" x="0px" y="0px"
	 width="1815.36px" height="1050.105px" viewBox="0 0 1815.36 1050.105" enable-background="new 0 0 1815.36 1050.105"
	 xml:space="preserve">
<path fill-rule="evenodd" clip-rule="evenodd" d="M1259.196,310.596c-0.973,1.463-2.058,3.031-3.078,4.639
	c-11.746,18.498-23.594,36.931-35.138,55.553c-2.772,4.472-6.017,6.292-11.302,6.267c-25.917-0.122-51.835,0.143-77.752,0.141
	c-4.074,0-7.854,0.674-11.667,2.106c-44.278,16.636-88.595,33.168-132.879,49.789c-2.892,1.085-5.765,1.656-8.846,1.783
	c-18.381,0.753-36.757,1.624-55.135,2.447c-3.832,0.171-7.667,0.308-11.675,0.468c-0.682,1.018-1.375,2.065-2.079,3.104
	c-6.94,10.256-20.799,10.921-28.709,1.367c-0.705-0.851-1.311-1.783-1.882-2.565c-5.481-0.521-63.512,1.735-78.578,3.041
	c-0.618,0.872-1.31,1.924-2.077,2.918c-6.968,9.027-19.417,9.663-27.228,1.391c-0.767-0.812-1.463-1.691-2.327-2.697
	c-4.019-0.506-8.141,0.132-12.171,0.116c-1.753,0.983-2.396,2.7-3.328,4.146c-15.079,23.39-30.168,46.773-45.142,70.231
	c-2.133,3.341-4.672,5.87-8.211,7.734c-9.193,4.843-18.196,10.045-27.366,14.933c-2.709,1.444-4.305,3.366-5.4,6.242
	c-12.966,34.063-26.104,68.062-39.039,102.136c-1.709,4.503-4.177,7.946-8.027,10.923
	c-66.316,51.265-132.542,102.646-198.79,153.999c-1.138,0.883-2.238,1.825-3.44,2.61c-3.54,2.31-7.028,1.767-9.803-1.491
	c-0.725-0.851-1.351-1.785-2.016-2.686c-5.32-7.207-10.65-14.406-15.95-21.629c-1.424-1.94-2.947-3.699-4.966-5.121
	c-3.534-2.486-5.563-6.065-6.65-10.242c-0.477-1.832-1.114-3.66-1.958-5.352c-2.499-5.007-5.038-9.999-7.758-14.888
	c-1.672-3.006-2.006-5.831-0.799-9.142c3.996-10.962,7.77-22.005,11.634-33.016c0.212-0.604,0.436-1.205,0.703-1.786
	c1.578-3.438,4.406-5.004,8.16-4.335c5.035,0.896,10.047,1.918,15.07,2.884c3.139,0.603,6.272,1.235,9.419,1.793
	c2.757,0.487,5.067,1.638,7.107,3.647c4.899,4.827,9.84,9.627,14.989,14.183c4.729,4.185,4.567,8.881-0.004,13.048
	c-6.618,6.033-12.946,12.386-19.388,18.611c-1.139,1.101-2.23,2.25-3.403,3.437c2.66,8.997,0.801,16.547-7.076,22.27
	c0.817,2.933,3.049,4.865,4.649,7.158c1.627,2.33,3.167,4.769,5.39,6.875c1.303-0.933,2.48-1.719,3.597-2.584
	c63.723-49.388,127.431-98.796,191.194-148.133c2.784-2.153,4.526-4.664,5.767-7.923c12.969-34.062,26.054-68.081,39.106-102.111
	c0.343-0.896,0.75-1.774,1.006-2.694c0.88-3.15,2.97-5.09,5.81-6.619c9.995-5.38,19.88-10.963,29.866-16.361
	c2.476-1.339,4.288-3.104,5.807-5.478c15.518-24.249,31.12-48.443,46.701-72.651c3.903-6.064,3.907-6.055,11.121-6.464
	c3.672-0.208,7.343-0.445,11.015-0.675c0.155-0.01,0.307-0.086,0.729-0.212c0.51-0.923,1.098-2.031,1.724-3.117
	c6.78-11.764,22.613-12.343,30.293-1.107c0.624,0.912,1.19,1.862,1.913,2.999c25.736-0.999,51.428-2.062,76.947-3.333
	c6.719-13.992,24.058-16.146,33.328-1.516c0.961,0,2.062,0.04,3.16-0.006c10.549-0.44,21.097-0.902,31.646-1.341
	c9.749-0.406,19.498-0.845,29.251-1.153c3.249-0.103,6.3-0.773,9.33-1.91c39.5-14.817,79.015-29.594,118.524-44.384
	c5.537-2.073,11.08-4.131,16.599-6.256c2.122-0.817,4.271-1.175,6.547-1.185c19.997-0.085,39.995-0.216,59.991-0.347
	c6.559-0.042,13.117-0.118,19.675-0.202c1.106-0.014,2.212-0.145,3.55-0.237c12.659-19.945,25.328-39.905,38.015-59.893
	c-2.447-4.865-3.798-9.695-2.167-14.951c1.124-3.627,3.062-6.666,6.045-9.015c6.692-5.272,14.81-4.926,23.8,1.236
	c91.776-28.222,183.821-56.54,276.091-84.953c0.984-12.618,1.732-25.038,2.493-37.46c0.763-12.447,1.658-24.886,2.506-37.487
	c-0.959-0.838-1.911-1.656-2.849-2.49c-5.592-4.974-7.591-12.293-5.243-19.181c2.318-6.801,8.539-11.473,15.915-11.953
	c9.171-0.597,17.711,6.813,18.343,15.983c0.537,7.8-2.642,13.626-9.484,17.434c-0.419,0.233-0.859,0.428-1.278,0.662
	c-0.413,0.23-0.812,0.488-1.352,0.815c-0.121,0.875-0.312,1.807-0.373,2.748c-1.389,21.709-2.76,43.42-4.145,65.129
	c-0.215,3.352-0.485,6.701-0.723,10.051c-0.335,4.75-1.601,6.516-6.166,7.957c-10.056,3.176-20.137,6.271-30.217,9.372
	c-81.403,25.035-162.809,50.062-244.211,75.099c-1.359,0.418-2.691,0.931-3.93,1.363
	C1277.622,305.486,1272.032,310.158,1259.196,310.596z M421.295,732.459c-3.232-3.04-6.43-6.162-9.774-9.119
	c-0.9-0.796-2.193-1.32-3.39-1.576c-4.843-1.036-9.717-1.93-14.586-2.842c-0.599-0.112-1.238-0.016-2.078-0.016
	c-0.758,1.993-1.526,3.896-2.21,5.828c-2.241,6.328-4.479,12.657-6.647,19.01c-0.346,1.017-0.741,2.326-0.387,3.209
	c0.92,2.302,1.725,4.767,3.499,6.299c2.928-0.853,5.477-1.967,8.118-2.262c2.794-0.312,5.675,0.154,8.596,0.285
	c5.988-5.78,11.975-11.552,17.943-17.342C420.708,733.613,420.884,733.134,421.295,732.459z M1572.588,104.194
	c-0.006-4.128-3.413-7.553-7.562-7.601c-4.43-0.051-7.842,3.411-7.725,7.837c0.11,4.138,3.618,7.524,7.722,7.453
	C1569.063,111.813,1572.595,108.224,1572.588,104.194z M784.834,423.508c-4.156-0.386-7.878,2.804-8.17,7.002
	c-0.288,4.148,2.489,7.63,6.466,8.109c4.508,0.543,8.292-2.437,8.734-6.877C792.265,427.722,788.998,423.895,784.834,423.508z
	 M395.852,776.159c4.094,0.003,7.57-3.446,7.628-7.567c0.059-4.222-3.175-7.603-7.375-7.711c-4.417-0.113-7.975,3.346-7.909,7.692
	C388.257,772.621,391.824,776.155,395.852,776.159z M1262.267,300.25c4.21,0.03,7.694-3.369,7.732-7.54
	c0.037-4.103-3.496-7.7-7.607-7.745c-4.154-0.045-7.609,3.401-7.64,7.618C1254.722,296.882,1257.993,300.22,1262.267,300.25z
	 M902.508,427.5c0.127-4.086-3.338-7.725-7.474-7.848c-4.179-0.125-7.718,3.241-7.817,7.433c-0.102,4.273,3.143,7.682,7.404,7.778
	C898.863,434.959,902.378,431.678,902.508,427.5z"/>
<path fill-rule="evenodd" clip-rule="evenodd" d="M1815.36,338.598c-2.23-0.054-4.48,0.062-6.689-0.187
	c-15.412-1.74-30.815-3.565-46.224-5.343c-11.279-1.301-22.567-2.517-33.836-3.897c-2.302-0.282-3.978,0.594-5.731,1.785
	c-14.822,10.059-29.667,20.086-44.505,30.124c-10.466,7.081-20.931,14.161-31.395,21.246c-1.323,0.896-2.631,1.813-4.26,2.938
	c-0.979,5.592-2.018,11.401-3.01,17.219c-3.037,17.809-6.049,35.623-9.085,53.432c-2.715,15.918-5.459,31.831-8.173,47.75
	c-1.396,8.195-2.833,16.386-4.091,24.603c-0.436,2.842-1.792,4.986-3.623,7.09c-30.773,35.362-61.505,70.761-92.248,106.15
	c-28.749,33.094-57.5,66.187-86.254,99.277c-1.354,1.56-2.733,3.097-4.285,4.854c-41.933-15.444-83.682-31.005-125.467-46.467
	c-41.666-15.417-83.302-30.915-124.959-46.359c-41.792-15.495-83.592-30.969-125.646-46.547
	c-7.202,6.423-14.191,12.967-21.261,19.42c-7.091,6.473-14.15,12.978-21.223,19.469s-14.143,12.985-21.214,19.477
	c-7.072,6.492-14.145,12.983-21.218,19.474c-7.074,6.489-14.149,12.977-21.225,19.466c-7.074,6.488-14.149,12.978-21.224,19.467
	s-14.148,12.978-21.222,19.469c-7.072,6.491-14.142,12.984-21.214,19.477c-7.072,6.491-14.145,12.982-21.218,19.473
	s-14.146,12.981-21.22,19.47c-7.074,6.49-14.15,12.978-21.225,19.466c-7.068,6.482-14.137,12.965-21.048,19.303
	c-2.352,0.433-3.998-0.772-5.733-1.455c-28.558-11.225-57.097-22.498-85.644-33.753c-56.052-22.099-112.106-44.191-168.159-66.29
	c-1.616-0.638-3.22-1.306-4.988-2.024c-2.433-24.526-4.846-48.854-7.302-73.606c-1.316-0.983-2.801-2.154-4.348-3.24
	c-34.303-24.074-68.614-48.138-102.922-72.205c-4.321-3.031-8.709-5.975-12.925-9.146c-1.974-1.484-3.879-1.812-6.249-1.358
	c-8.163,1.562-16.355,2.968-24.537,4.433c-16.835,3.015-33.67,6.031-50.506,9.045c-4.562,0.817-9.164,1.464-13.674,2.508
	c-2.638,0.61-4.524-0.072-6.539-1.709c-11.92-9.684-23.92-19.269-35.893-28.887c-85.556-68.735-171.111-137.471-256.667-206.206
	c-3.866-3.106-7.704-6.249-11.618-9.294c-1.107-0.862-2.437-1.438-3.665-2.145c0-16.96,0-33.92,0-50.88
	c1.889-0.353,2.917,1.104,4.12,2.061c6.637,5.274,13.227,10.607,19.835,15.917c97.761,78.538,195.522,157.075,293.285,235.61
	c1.485,1.193,2.993,2.356,4.46,3.51c9.66-1.726,19.091-3.409,28.521-5.096c16.99-3.04,33.979-6.085,50.969-9.121
	c4.09-0.731,8.208-1.331,12.27-2.192c1.758-0.373,3.124-0.028,4.454,1.031c0.624,0.497,1.315,0.909,1.969,1.369
	c47.783,33.528,95.569,67.052,143.34,100.597c4.785,3.36,4.179,1.749,4.87,8.492c1.824,17.816,3.471,35.65,5.21,53.476
	c0.279,2.857,0.669,5.703,0.996,8.458c3.407,1.892,211.883,84.198,218.009,86.056c6.403-5.667,12.797-11.673,19.271-17.586
	c6.614-6.041,13.198-12.115,19.798-18.172c6.482-5.949,12.969-11.893,19.453-17.84c6.602-6.056,13.202-12.111,19.802-18.168
	c6.482-5.949,12.962-11.901,19.444-17.85s12.967-11.895,19.451-17.842c6.602-6.055,13.205-12.108,19.805-18.165
	c6.482-5.949,12.959-11.903,19.441-17.853s12.968-11.895,19.451-17.841c6.603-6.055,13.207-12.106,19.807-18.164
	c6.482-5.949,12.958-11.904,19.439-17.854c6.599-6.058,13.198-12.115,19.803-18.167c6.475-5.933,12.955-11.858,19.555-17.899
	c124.347,46.099,248.511,92.13,372.668,138.159c1.871-1.081,2.928-2.72,4.165-4.142c21.836-25.104,43.653-50.225,65.474-75.343
	c29.164-33.57,58.303-67.163,87.537-100.672c2.416-2.769,3.809-5.676,4.405-9.283c3.338-20.186,6.842-40.345,10.271-60.516
	c3.35-19.699,6.677-39.401,10.016-59.102c1.335-7.88,2.761-15.747,3.966-23.647c0.445-2.918,1.778-4.777,4.253-6.443
	c34.361-23.125,68.659-46.345,102.928-69.608c2.268-1.539,4.451-2.062,7.159-1.74c16.669,1.984,33.353,3.838,50.032,5.736
	c13.979,1.59,27.958,3.169,41.934,4.786c1.256,0.146,2.483,0.532,3.725,0.807C1815.36,312.357,1815.36,325.478,1815.36,338.598z"/>
</svg>
